<svg xmlns="http://www.w3.org/2000/svg" width="19.433" height="19.45" viewBox="0 0 19.433 19.45">
  <path id="faithfulIcon" d="M-9.716-4.843a2.323,2.323,0,0,0,2.6,2.637h2.979V.765A2.33,2.33,0,0,0-1.5,3.375H1.507A2.33,2.33,0,0,0,4.144.765V-2.206H7.115a2.323,2.323,0,0,0,2.6-2.637V-7.857a2.321,2.321,0,0,0-2.6-2.628H4.144v-2.979a2.33,2.33,0,0,0-2.637-2.61H-1.5a2.33,2.33,0,0,0-2.637,2.61v2.979H-7.115a2.321,2.321,0,0,0-2.6,2.628Zm1.775-.167V-7.682A.9.9,0,0,1-6.913-8.7h4.562v-4.57A.906.906,0,0,1-1.332-14.3H1.34a.906.906,0,0,1,1.02,1.028V-8.7H6.913A.909.909,0,0,1,7.95-7.682V-5.01A.9.9,0,0,1,6.913-4H2.36V.571A.906.906,0,0,1,1.34,1.6H-1.332A.906.906,0,0,1-2.351.571V-4H-6.913A.9.9,0,0,1-7.941-5.01Z" transform="translate(9.716 16.075)" fill="#e5801c"/>
</svg>
