<svg xmlns="http://www.w3.org/2000/svg" width="12.489" height="18.097" viewBox="0 0 12.489 18.097">
  <path id="offeringIcon" d="M0,2.7c3.744,0,6.24-2.443,6.24-6.1A12.3,12.3,0,0,0,4.953-8.288a49.759,49.759,0,0,0-3.63-6.293A1.533,1.533,0,0,0,0-15.4a1.536,1.536,0,0,0-1.327.817A49.334,49.334,0,0,0-4.97-8.244,12.335,12.335,0,0,0-6.245-3.4C-6.245.255-3.749,2.7,0,2.7ZM0,.958A4.188,4.188,0,0,1-4.5-3.4a10.187,10.187,0,0,1,1.09-4.008A35.437,35.437,0,0,1-.083-13.131a.092.092,0,0,1,.176,0A35.778,35.778,0,0,1,3.406-7.444,10.447,10.447,0,0,1,4.5-3.4,4.186,4.186,0,0,1,0,.958Z" transform="translate(6.245 15.398)" fill="#e5801c"/>
</svg>
